<svg id="visual" viewBox="0 0 960 540" width="960" height="540" xmlns="http://www.w3.org/2000/svg" xmlns:xlink="http://www.w3.org/1999/xlink" version="1.1"><path d="M0 372L22.8 373.8C45.7 375.7 91.3 379.3 137 378C182.7 376.7 228.3 370.3 274 366.8C319.7 363.3 365.3 362.7 411.2 359.8C457 357 503 352 548.8 349.8C594.7 347.7 640.3 348.3 686 349.5C731.7 350.7 777.3 352.3 823 348.7C868.7 345 914.3 336 937.2 331.5L960 327L960 541L937.2 541C914.3 541 868.7 541 823 541C777.3 541 731.7 541 686 541C640.3 541 594.7 541 548.8 541C503 541 457 541 411.2 541C365.3 541 319.7 541 274 541C228.3 541 182.7 541 137 541C91.3 541 45.7 541 22.8 541L0 541Z" fill="#7575db"></path><path d="M0 424L22.8 415.5C45.7 407 91.3 390 137 388.3C182.7 386.7 228.3 400.3 274 400C319.7 399.7 365.3 385.3 411.2 381.2C457 377 503 383 548.8 387.5C594.7 392 640.3 395 686 397C731.7 399 777.3 400 823 402.5C868.7 405 914.3 409 937.2 411L960 413L960 541L937.2 541C914.3 541 868.7 541 823 541C777.3 541 731.7 541 686 541C640.3 541 594.7 541 548.8 541C503 541 457 541 411.2 541C365.3 541 319.7 541 274 541C228.3 541 182.7 541 137 541C91.3 541 45.7 541 22.8 541L0 541Z" fill="#5e68c6"></path><path d="M0 427L22.8 423.5C45.7 420 91.3 413 137 409C182.7 405 228.3 404 274 405C319.7 406 365.3 409 411.2 412.7C457 416.3 503 420.7 548.8 422.5C594.7 424.3 640.3 423.7 686 427.8C731.7 432 777.3 441 823 444.5C868.7 448 914.3 446 937.2 445L960 444L960 541L937.2 541C914.3 541 868.7 541 823 541C777.3 541 731.7 541 686 541C640.3 541 594.7 541 548.8 541C503 541 457 541 411.2 541C365.3 541 319.7 541 274 541C228.3 541 182.7 541 137 541C91.3 541 45.7 541 22.8 541L0 541Z" fill="#485bb2"></path><path d="M0 457L22.8 460.5C45.7 464 91.3 471 137 468C182.7 465 228.3 452 274 445.7C319.7 439.3 365.3 439.7 411.2 445.8C457 452 503 464 548.8 465.3C594.7 466.7 640.3 457.3 686 457.8C731.7 458.3 777.3 468.7 823 469.5C868.7 470.3 914.3 461.7 937.2 457.3L960 453L960 541L937.2 541C914.3 541 868.7 541 823 541C777.3 541 731.7 541 686 541C640.3 541 594.7 541 548.8 541C503 541 457 541 411.2 541C365.3 541 319.7 541 274 541C228.3 541 182.7 541 137 541C91.3 541 45.7 541 22.8 541L0 541Z" fill="#324e9e"></path><path d="M0 498L22.8 495.3C45.7 492.7 91.3 487.3 137 489.5C182.7 491.7 228.3 501.3 274 501.8C319.7 502.3 365.3 493.7 411.2 488C457 482.3 503 479.7 548.8 480.5C594.7 481.3 640.3 485.7 686 487.7C731.7 489.7 777.3 489.3 823 492.3C868.7 495.3 914.3 501.7 937.2 504.8L960 508L960 541L937.2 541C914.3 541 868.7 541 823 541C777.3 541 731.7 541 686 541C640.3 541 594.7 541 548.8 541C503 541 457 541 411.2 541C365.3 541 319.7 541 274 541C228.3 541 182.7 541 137 541C91.3 541 45.7 541 22.8 541L0 541Z" fill="#18418a"></path></svg>